<svg width="301" height="300" viewBox="0 0 301 300" fill="none" xmlns="http://www.w3.org/2000/svg">
<path fill-rule="evenodd" clip-rule="evenodd" d="M230.566 0.27928L230.567 0.279291C235.806 2.30767 241.376 4.46396 240.5 7.14429C231.307 12.4249 234.364 19.5536 237.485 26.8303C241.493 36.1769 245.606 45.7676 224 52C223.787 52.2125 223.559 52.3432 223.348 52.4647C222.396 53.0103 221.768 53.3701 224.319 60.117C227.567 57.949 231.252 56.0312 234.942 54.1111C238.472 52.2737 242.007 50.4341 245.167 48.371C255.885 43.1633 259.458 33.2685 257.927 28.0608C256.396 22.853 252.057 20.7699 248.229 23.8946C245.972 25.7368 244.957 27.579 244.295 28.7809C243.834 29.6175 243.544 30.1439 243.125 30.1439C240.573 33.2685 241.594 22.853 245.167 19.2076C248.74 15.5621 259.969 7.22972 267.625 22.3322C274.911 45.9475 268.623 57.8112 262.189 69.9503L262.189 69.9517C260.961 72.2678 259.728 74.594 258.583 77.0137H284.843C284.843 82.0801 276.351 87.8433 267.05 94.1547C253.407 103.413 238.026 113.852 245.167 125C248.748 130.814 252.146 136.067 255.26 140.878L255.26 140.879C272.969 168.249 281.433 181.331 261.572 202H213.07C194.746 184.151 197.025 180.961 209.832 163.036C213.766 157.531 218.692 150.636 224.319 141.5C231.747 129.936 216.664 112.859 204.013 98.5366C196.154 89.6384 189.234 81.8032 189.234 77.0137H213.521C213.521 70.1387 217.178 65.3814 222.361 61.4994C219.62 54.7362 215.472 53.3187 213.846 52.7632C213.722 52.721 213.613 52.6837 213.521 52.6495C198.097 46.9538 199.404 38.9773 200.783 30.5695C201.946 23.4758 203.159 16.0751 194.417 9.47791C192.967 8.98503 196.825 4.13985 202.374 0H130H90L220 260L240 300H300L300.5 0H260.5H229.846C230.085 0.0928482 230.325 0.185929 230.566 0.27928ZM0 0H85L105 40H40V110H140L160 150H40V300H0V0Z" fill="black"/>
</svg>
