<svg width="2850" height="313" viewBox="0 0 2850 313" fill="none" xmlns="http://www.w3.org/2000/svg">
<path d="M454.308 58.0175V135.584H558.971V190.449H454.308V309.637H382.851V3.36334H579.988V58.0175H454.308Z" fill="black"/>
<path d="M780.237 252.88V309.637H595.711V3.36334H666.747V252.88H780.237Z" fill="black"/>
<path fill-rule="evenodd" clip-rule="evenodd" d="M1084.48 156.395C1084.48 178.537 1080.63 199.137 1072.92 218.196C1065.36 237.255 1054.64 253.861 1040.77 268.015C1026.89 282.029 1010.15 293.03 990.536 301.018C971.06 309.006 949.413 313 925.594 313C901.775 313 880.058 309.006 860.442 301.018C840.827 293.03 824.013 282.029 810.002 268.015C796.131 253.861 785.343 237.255 777.637 218.196C770.071 199.137 766.288 178.537 766.288 156.395C766.288 134.253 770.071 113.653 777.637 94.5937C785.343 75.5348 796.131 58.9984 810.002 44.9845C824.013 30.9707 840.827 19.9698 860.442 11.9819C880.058 3.99396 901.775 0 925.594 0C949.413 0 971.06 4.06402 990.536 12.1921C1010.15 20.18 1026.89 31.1809 1040.77 45.1948C1054.64 59.2086 1065.36 75.745 1072.92 94.8039C1080.63 113.863 1084.48 134.393 1084.48 156.395ZM1011.76 156.395C1011.76 141.26 1009.8 127.666 1005.88 115.614C1001.95 103.422 996.28 93.1222 988.854 84.7139C981.569 76.3056 972.601 69.8592 961.953 65.3747C951.305 60.8903 939.185 58.6481 925.594 58.6481C911.863 58.6481 899.603 60.8903 888.815 65.3747C878.166 69.8592 869.129 76.3056 861.703 84.7139C854.418 93.1222 848.813 103.422 844.89 115.614C840.967 127.666 839.005 141.26 839.005 156.395C839.005 171.67 840.967 185.404 844.89 197.596C848.813 209.648 854.418 219.878 861.703 228.286C869.129 236.694 878.166 243.141 888.815 247.625C899.603 251.97 911.863 254.142 925.594 254.142C939.185 254.142 951.305 251.97 961.953 247.625C972.601 243.141 981.569 236.694 988.854 228.286C996.28 219.878 1001.95 209.648 1005.88 197.596C1009.8 185.404 1011.76 171.67 1011.76 156.395Z" fill="black"/>
<path d="M1510.45 3.36334L1415.87 309.637H1351.56L1293.97 119.819C1292.85 116.876 1291.8 113.653 1290.82 110.149C1289.84 106.505 1288.86 102.722 1287.88 98.7979C1286.9 102.722 1285.92 106.505 1284.94 110.149C1283.96 113.653 1282.91 116.876 1281.78 119.819L1223.36 309.637H1159.05L1064.47 3.36334H1124.16C1130.32 3.36334 1135.44 4.76472 1139.5 7.5675C1143.7 10.3703 1146.44 14.0839 1147.7 18.7085L1189.73 178.467C1190.99 183.512 1192.25 189.047 1193.51 195.073C1194.78 200.959 1196.04 207.125 1197.3 213.572C1199.82 200.398 1202.9 188.697 1206.54 178.467L1256.14 18.7085C1257.4 14.7846 1260.07 11.2812 1264.13 8.19813C1268.33 4.97493 1273.38 3.36334 1279.26 3.36334H1300.28C1306.44 3.36334 1311.42 4.83479 1315.2 7.77769C1318.98 10.5805 1321.86 14.2241 1323.82 18.7085L1373 178.467C1376.64 188.276 1379.72 199.417 1382.24 211.89C1383.36 205.584 1384.49 199.698 1385.61 194.232C1386.87 188.627 1388.13 183.372 1389.39 178.467L1431.42 18.7085C1432.54 14.6445 1435.21 11.071 1439.41 7.98791C1443.61 4.90486 1448.66 3.36334 1454.54 3.36334H1510.45Z" fill="black"/>
<path d="M1587.34 58.0175V129.488H1683.59V182.04H1587.34V254.983H1713.02V309.637H1515.88V3.36334H1713.02V58.0175H1587.34Z" fill="black"/>
<path fill-rule="evenodd" clip-rule="evenodd" d="M1982.13 309.637H1917.82C1905.91 309.637 1897.37 305.152 1892.18 296.183L1841.32 207.265C1838.94 203.482 1836.28 200.749 1833.33 199.067C1830.39 197.245 1826.19 196.334 1820.72 196.334H1802.65V309.637H1731.61V3.36334H1831.23C1853.37 3.36334 1872.22 5.67563 1887.77 10.3002C1903.46 14.7846 1916.21 21.0909 1926.02 29.2189C1935.97 37.347 1943.18 46.9465 1947.67 58.0175C1952.15 69.0884 1954.39 81.1404 1954.39 94.1733C1954.39 104.123 1953.06 113.512 1950.4 122.341C1947.74 131.17 1943.81 139.368 1938.63 146.936C1933.44 154.363 1927 161.019 1919.29 166.905C1911.73 172.791 1902.97 177.626 1893.02 181.41C1897.65 183.792 1901.99 186.805 1906.05 190.449C1910.12 193.952 1913.76 198.156 1916.98 203.061L1982.13 309.637ZM1831.23 147.356C1840.9 147.356 1849.1 146.165 1855.82 143.782C1862.69 141.26 1868.29 137.826 1872.64 133.482C1876.98 129.138 1880.13 124.093 1882.09 118.347C1884.05 112.461 1885.04 106.155 1885.04 99.4285C1885.04 85.9751 1880.62 75.4647 1871.79 67.8972C1863.11 60.3297 1849.59 56.546 1831.23 56.546H1802.65V147.356H1831.23Z" fill="black"/>
<path d="M2246.25 3.36334L2123.52 309.637H2059.2L1936.47 3.36334H1993.63C1999.8 3.36334 2004.77 4.83479 2008.55 7.77769C2012.34 10.5805 2015.21 14.2241 2017.17 18.7085L2076.44 182.671C2079.24 189.818 2081.97 197.666 2084.63 206.214C2087.3 214.623 2089.82 223.451 2092.2 232.7C2094.16 223.451 2096.33 214.623 2098.72 206.214C2101.24 197.666 2103.9 189.818 2106.7 182.671L2165.55 18.7085C2167.09 14.7846 2169.82 11.2812 2173.75 8.19813C2177.81 4.97493 2182.78 3.36334 2188.67 3.36334H2246.25Z" fill="black"/>
<path fill-rule="evenodd" clip-rule="evenodd" d="M2446.42 309.637H2391.35C2385.19 309.637 2380.21 308.235 2376.43 305.432C2372.65 302.49 2369.78 298.776 2367.81 294.291L2349.74 240.899H2233.31L2215.23 294.291C2213.69 298.215 2206.83 305.012 2206.83 305.012C2206.83 305.012 2198 309.637 2192.12 309.637H2136.63L2255.17 3.36334H2327.88L2446.42 309.637ZM2333.56 192.551L2305.19 108.678C2303.08 103.352 2300.84 97.1162 2298.46 89.9691C2296.08 82.6819 2293.7 74.8341 2291.31 66.4258C2289.21 74.9742 2286.97 82.8921 2284.59 90.1793C2282.21 97.4665 2279.97 103.773 2277.86 109.098L2249.7 192.551H2333.56Z" fill="black"/>
<path d="M2614.52 65.585C2612.42 68.9483 2610.18 71.4708 2607.8 73.1525C2605.56 74.8341 2602.61 75.6749 2598.97 75.6749C2595.75 75.6749 2592.25 74.694 2588.46 72.732C2584.82 70.6299 2580.62 68.3176 2575.85 65.7952C2571.23 63.2727 2565.91 61.0304 2559.88 59.0685C2553.86 56.9664 2546.99 55.9154 2539.28 55.9154C2525.97 55.9154 2516.03 58.7882 2509.44 64.5339C2503 70.1395 2499.77 77.777 2499.77 87.4466C2499.77 93.6127 2501.73 98.7278 2505.66 102.792C2509.58 106.856 2514.7 110.359 2521 113.302C2527.45 116.245 2534.73 118.978 2542.86 121.5C2551.12 123.883 2559.53 126.615 2568.08 129.698C2576.62 132.641 2584.96 136.145 2593.09 140.209C2601.35 144.273 2608.64 149.458 2614.94 155.764C2621.39 162.071 2626.57 169.778 2630.5 178.887C2634.42 187.856 2636.38 198.717 2636.38 211.469C2636.38 225.623 2633.93 238.867 2629.03 251.199C2624.12 263.531 2616.98 274.322 2607.59 283.571C2598.34 292.68 2586.85 299.897 2573.12 305.222C2559.53 310.407 2544.05 313 2526.67 313C2517.15 313 2507.41 312.019 2497.46 310.057C2487.65 308.095 2478.13 305.362 2468.88 301.859C2459.63 298.215 2450.94 293.941 2442.82 289.036C2434.69 284.131 2427.62 278.666 2421.59 272.64L2442.61 239.427C2444.29 237.045 2446.46 235.083 2449.12 233.541C2451.93 231.86 2454.94 231.019 2458.16 231.019C2462.36 231.019 2466.57 232.35 2470.77 235.013C2475.11 237.675 2479.95 240.618 2485.27 243.841C2490.74 247.065 2496.97 250.008 2503.98 252.67C2510.98 255.333 2519.25 256.664 2528.78 256.664C2541.67 256.664 2551.68 253.861 2558.83 248.256C2565.98 242.51 2569.55 233.471 2569.55 221.139C2569.55 213.992 2567.59 208.176 2563.66 203.692C2559.74 199.207 2554.56 195.494 2548.11 192.551C2541.81 189.608 2534.59 187.015 2526.46 184.773C2518.34 182.531 2510 180.078 2501.45 177.416C2492.91 174.613 2484.57 171.25 2476.44 167.326C2468.32 163.262 2461.03 158.006 2454.59 151.56C2448.28 144.974 2443.17 136.846 2439.25 127.176C2435.32 117.366 2433.36 105.314 2433.36 91.0201C2433.36 79.5287 2435.67 68.3176 2440.3 57.3868C2444.92 46.456 2451.72 36.7163 2460.68 28.1679C2469.65 19.6194 2480.65 12.8227 2493.68 7.77769C2506.71 2.59256 2521.63 0 2538.44 0C2547.83 0 2556.94 0.770766 2565.77 2.3123C2574.73 3.71368 2583.21 5.88583 2591.2 8.82873C2599.18 11.6315 2606.61 15.0649 2613.47 19.1289C2620.48 23.0528 2626.71 27.5373 2632.18 32.5823L2614.52 65.585Z" fill="black"/>
<path d="M2724.32 58.0175V129.488H2820.58V182.04H2724.32V254.983H2850V309.637H2652.86V3.36334H2850V58.0175H2724.32Z" fill="black"/>
<path fill-rule="evenodd" clip-rule="evenodd" d="M240.525 0.291379C245.991 2.40765 251.801 4.65739 250.888 7.45388C241.298 12.9633 244.487 20.4009 247.742 27.993C251.923 37.7445 256.214 47.7509 233.675 54.2533C233.453 54.4751 233.215 54.6114 232.994 54.7382C232.002 55.3074 231.347 55.6828 234.008 62.722C237.396 60.4601 241.24 58.4593 245.089 56.4559C248.772 54.5389 252.46 52.6196 255.756 50.4671C266.938 45.0337 270.665 34.7102 269.067 29.2767C267.47 23.8433 262.944 21.6699 258.951 24.93C256.596 26.852 255.537 28.7741 254.846 30.028C254.366 30.901 254.063 31.4501 253.626 31.4501C250.964 34.7102 252.029 23.8433 255.756 20.0399C259.483 16.2365 271.197 7.54301 279.184 23.3C286.785 47.9386 280.226 60.3164 273.514 72.9815L273.514 72.9819C272.233 75.3987 270.947 77.826 269.752 80.351H297.146C297.146 85.6369 288.287 91.6499 278.585 98.2348C264.352 107.895 248.307 118.785 255.756 130.417C259.491 136.482 263.037 141.963 266.285 146.983C284.759 175.54 293.589 189.188 272.87 210.753H222.273C203.157 192.131 205.535 188.803 218.895 170.1C222.999 164.357 228.138 157.163 234.008 147.632C241.756 135.567 226.022 117.75 212.825 102.807C204.626 93.5227 197.407 85.348 197.407 80.351H222.743C222.743 73.1781 226.558 68.2146 231.965 64.1643C229.105 57.1081 224.778 55.6292 223.082 55.0496C222.953 55.0055 222.84 54.9667 222.743 54.931C206.653 48.9884 208.017 40.6663 209.455 31.8941C210.668 24.4931 211.934 16.7717 202.814 9.88862C201.302 9.37438 205.327 4.31924 211.115 0H135.615H93.8873L229.502 271.267L250.366 313H312.958L313.479 0H271.751H239.773C240.023 0.0968706 240.274 0.193984 240.525 0.291379ZM0 0H88.6713L109.535 41.7333H41.7277V114.767H146.047L166.911 156.5H41.7277V313H0V0Z" fill="black"/>
</svg>
